<svg width="263" height="177" viewBox="0 0 263 177" fill="none" xmlns="http://www.w3.org/2000/svg">
<g clip-path="url(#clip0_6_6)">
<path d="M71.9242 156.768C69.1082 156.768 66.5482 156.235 64.2442 155.168C61.9402 154.101 59.9776 152.565 58.3562 150.56C56.7349 148.555 55.4762 146.123 54.5802 143.264C53.6842 140.405 53.2362 137.205 53.2362 133.664C53.2362 129.952 53.6842 126.667 54.5802 123.808C55.4762 120.949 56.7136 118.539 58.2922 116.576C59.9136 114.613 61.8549 113.12 64.1162 112.096C66.3776 111.072 68.8736 110.56 71.6042 110.56C74.3776 110.56 76.6816 111.029 78.5162 111.968C80.3936 112.864 81.6309 113.995 82.2282 115.36H82.4842V111.328H87.0923V124.384H82.4842V121.056C82.4842 118.923 81.5456 117.216 79.6682 115.936C77.7909 114.613 75.3376 113.952 72.3082 113.952C70.0469 113.952 68.0842 114.379 66.4202 115.232C64.7989 116.043 63.4549 117.173 62.3882 118.624C61.3642 120.032 60.5962 121.696 60.0842 123.616C59.6149 125.493 59.3802 127.477 59.3802 129.568V137.312C59.3802 139.659 59.6789 141.771 60.2762 143.648C60.9162 145.525 61.8122 147.147 62.9642 148.512C64.1589 149.835 65.6096 150.859 67.3162 151.584C69.0229 152.309 70.9642 152.672 73.1402 152.672C76.1696 152.672 78.7082 151.883 80.7562 150.304C82.8042 148.725 84.2976 146.72 85.2362 144.288L87.7323 145.504C87.3483 146.741 86.7296 148.021 85.8762 149.344C85.0229 150.667 83.9349 151.883 82.6122 152.992C81.3322 154.101 79.7962 155.019 78.0042 155.744C76.2122 156.427 74.1856 156.768 71.9242 156.768ZM95.0057 156.768C91.9337 156.768 89.5231 155.979 87.7737 154.4C86.0671 152.779 85.2137 150.581 85.2137 147.808C85.2137 146.229 85.4697 144.843 85.9817 143.648C86.4937 142.411 87.3257 141.387 88.4777 140.576C89.6724 139.765 91.2084 139.147 93.0857 138.72C94.9631 138.293 97.2457 138.08 99.9337 138.08H104.67V133.216C104.67 130.613 104.03 128.629 102.75 127.264C101.512 125.856 99.6351 125.152 97.1177 125.152C96.0084 125.152 94.9844 125.259 94.0457 125.472C93.1071 125.643 92.3391 125.899 91.7417 126.24V126.368C92.2111 126.624 92.6591 127.008 93.0857 127.52C93.5551 128.032 93.7897 128.757 93.7897 129.696C93.7897 130.805 93.4697 131.68 92.8297 132.32C92.1897 132.917 91.3364 133.216 90.2697 133.216C89.2457 133.216 88.3924 132.917 87.7097 132.32C87.0697 131.68 86.7497 130.741 86.7497 129.504C86.7497 128.565 87.0271 127.669 87.5817 126.816C88.1364 125.92 88.9257 125.131 89.9497 124.448C90.9737 123.765 92.2324 123.232 93.7257 122.848C95.2617 122.421 96.9897 122.208 98.9097 122.208C102.366 122.208 105.054 123.104 106.974 124.896C108.936 126.688 109.918 129.205 109.918 132.448V153.248H114.718V155.488C114.248 155.829 113.608 156.128 112.798 156.384C112.03 156.64 111.155 156.768 110.174 156.768C108.51 156.768 107.23 156.299 106.334 155.36C105.438 154.421 104.99 153.163 104.99 151.584V151.136H104.67C104.371 151.861 103.966 152.565 103.454 153.248C102.984 153.931 102.366 154.528 101.598 155.04C100.83 155.552 99.8911 155.957 98.7817 156.256C97.7151 156.597 96.4564 156.768 95.0057 156.768ZM97.2457 153.248C99.2937 153.248 101.043 152.736 102.494 151.712C103.944 150.645 104.67 149.024 104.67 146.848V140.64H100.51C98.6751 140.64 97.1391 140.789 95.9017 141.088C94.6644 141.344 93.6831 141.749 92.9577 142.304C92.2324 142.816 91.6991 143.456 91.3577 144.224C91.0591 144.992 90.9097 145.888 90.9097 146.912V148.256C90.9097 149.877 91.4644 151.115 92.5737 151.968C93.6831 152.821 95.2404 153.248 97.2457 153.248ZM111.191 153.056H115.927V127.136L111.191 126.304V124.128L121.047 122.208V127.968H121.367C121.666 127.285 122.029 126.603 122.455 125.92C122.925 125.237 123.479 124.619 124.119 124.064C124.802 123.509 125.57 123.061 126.423 122.72C127.319 122.379 128.343 122.208 129.495 122.208C131.373 122.208 132.866 122.656 133.975 123.552C135.127 124.448 135.703 125.749 135.703 127.456C135.703 128.736 135.383 129.739 134.743 130.464C134.103 131.189 133.271 131.552 132.247 131.552C131.095 131.552 130.178 131.253 129.495 130.656C128.813 130.016 128.471 129.205 128.471 128.224C128.471 127.371 128.642 126.688 128.983 126.176C129.367 125.621 129.794 125.301 130.263 125.216V125.088C130.093 125.045 129.879 125.024 129.623 125.024C129.367 124.981 129.047 124.96 128.663 124.96C127.767 124.96 126.871 125.195 125.975 125.664C125.079 126.091 124.269 126.667 123.543 127.392C122.861 128.075 122.285 128.864 121.815 129.76C121.389 130.656 121.175 131.552 121.175 132.448V153.056H127.191V156H111.191V153.056Z" fill="#AD2E2E"/>
<path d="M137.966 115.36C136.857 115.36 136.004 115.04 135.406 114.4C134.852 113.717 134.574 112.907 134.574 111.968V111.648C134.574 110.709 134.852 109.92 135.406 109.28C136.004 108.597 136.857 108.256 137.966 108.256C139.076 108.256 139.929 108.597 140.526 109.28C141.124 109.92 141.422 110.709 141.422 111.648V111.968C141.422 112.907 141.124 113.717 140.526 114.4C139.929 115.04 139.076 115.36 137.966 115.36ZM130.606 153.056H135.342V127.136L130.606 126.304V124.128L140.59 122.208V153.056H145.326V156H130.606V153.056ZM140.874 153.056H145.61V112.288L140.874 111.456V109.216L150.858 107.36V153.056H155.594V156H140.874V153.056ZM151.101 153.056H155.837V112.288L151.101 111.456V109.216L161.085 107.36V127.904H161.341C161.597 127.264 161.981 126.603 162.493 125.92C163.005 125.237 163.645 124.619 164.413 124.064C165.224 123.509 166.141 123.061 167.165 122.72C168.232 122.379 169.427 122.208 170.749 122.208C174.717 122.208 177.555 123.253 179.261 125.344C180.968 127.392 181.821 130.485 181.821 134.624V153.056H186.557V156H171.837V153.056H176.573V135.072C176.573 131.957 175.955 129.653 174.717 128.16C173.48 126.624 171.517 125.856 168.829 125.856C167.891 125.856 166.952 125.984 166.013 126.24C165.117 126.496 164.285 126.901 163.517 127.456C162.792 128.011 162.195 128.693 161.725 129.504C161.299 130.315 161.085 131.275 161.085 132.384V153.056H165.821V156H151.101V153.056ZM197.887 153.632C199.465 153.632 200.831 153.376 201.983 152.864C203.177 152.309 204.137 151.563 204.863 150.624C205.631 149.643 206.185 148.512 206.527 147.232C206.911 145.909 207.103 144.48 207.103 142.944V136.032C207.103 134.496 206.911 133.088 206.527 131.808C206.185 130.485 205.631 129.355 204.863 128.416C204.137 127.435 203.177 126.688 201.983 126.176C200.831 125.621 199.465 125.344 197.887 125.344C196.265 125.344 194.879 125.621 193.727 126.176C192.575 126.688 191.615 127.435 190.847 128.416C190.121 129.355 189.567 130.485 189.183 131.808C188.841 133.088 188.671 134.496 188.671 136.032V142.944C188.671 144.48 188.841 145.909 189.183 147.232C189.567 148.512 190.121 149.643 190.847 150.624C191.615 151.563 192.575 152.309 193.727 152.864C194.879 153.376 196.265 153.632 197.887 153.632ZM197.887 156.768C195.625 156.768 193.556 156.363 191.679 155.552C189.801 154.741 188.201 153.589 186.879 152.096C185.556 150.56 184.532 148.747 183.807 146.656C183.081 144.523 182.719 142.133 182.719 139.488C182.719 136.885 183.081 134.517 183.807 132.384C184.532 130.251 185.556 128.437 186.879 126.944C188.201 125.408 189.801 124.235 191.679 123.424C193.556 122.613 195.625 122.208 197.887 122.208C200.148 122.208 202.217 122.613 204.095 123.424C205.972 124.235 207.572 125.408 208.895 126.944C210.217 128.437 211.241 130.251 211.967 132.384C212.692 134.517 213.055 136.885 213.055 139.488C213.055 142.133 212.692 144.523 211.967 146.656C211.241 148.747 210.217 150.56 208.895 152.096C207.572 153.589 205.972 154.741 204.095 155.552C202.217 156.363 200.148 156.768 197.887 156.768Z" fill="#3F8CFF"/>
<path d="M118.74 103.576C115.668 103.576 113.204 102.472 111.348 100.264C109.524 98.024 108.612 94.808 108.612 90.616C108.612 86.424 109.524 83.224 111.348 81.016C113.204 78.776 115.668 77.656 118.74 77.656C120.66 77.656 122.212 78.072 123.396 78.904C124.612 79.736 125.492 80.744 126.036 81.928H126.228V70.216L122.628 69.592V67.912L130.164 66.52V99.88L133.716 100.504V102.136L126.228 103.576V99.256H126.036C125.492 100.44 124.628 101.464 123.444 102.328C122.26 103.16 120.692 103.576 118.74 103.576ZM119.892 100.84C120.66 100.84 121.428 100.728 122.196 100.504C122.964 100.28 123.636 99.96 124.212 99.544C124.82 99.128 125.3 98.616 125.652 98.008C126.036 97.368 126.228 96.664 126.228 95.896V85.336C126.228 84.568 126.036 83.88 125.652 83.272C125.3 82.632 124.82 82.104 124.212 81.688C123.636 81.272 122.964 80.952 122.196 80.728C121.428 80.504 120.66 80.392 119.892 80.392C117.684 80.392 115.956 81.144 114.708 82.648C113.492 84.12 112.884 86.104 112.884 88.6V92.632C112.884 95.128 113.492 97.128 114.708 98.632C115.956 100.104 117.684 100.84 119.892 100.84ZM142.231 101.224C143.415 101.224 144.439 101.032 145.303 100.648C146.199 100.232 146.919 99.672 147.463 98.968C148.039 98.232 148.455 97.384 148.711 96.424C148.999 95.432 149.143 94.36 149.143 93.208V88.024C149.143 86.872 148.999 85.816 148.711 84.856C148.455 83.864 148.039 83.016 147.463 82.312C146.919 81.576 146.199 81.016 145.303 80.632C144.439 80.216 143.415 80.008 142.231 80.008C141.015 80.008 139.975 80.216 139.111 80.632C138.247 81.016 137.527 81.576 136.951 82.312C136.407 83.016 135.991 83.864 135.703 84.856C135.447 85.816 135.319 86.872 135.319 88.024V93.208C135.319 94.36 135.447 95.432 135.703 96.424C135.991 97.384 136.407 98.232 136.951 98.968C137.527 99.672 138.247 100.232 139.111 100.648C139.975 101.032 141.015 101.224 142.231 101.224ZM142.231 103.576C140.535 103.576 138.983 103.272 137.575 102.664C136.167 102.056 134.967 101.192 133.975 100.072C132.983 98.92 132.215 97.56 131.671 95.992C131.127 94.392 130.855 92.6 130.855 90.616C130.855 88.664 131.127 86.888 131.671 85.288C132.215 83.688 132.983 82.328 133.975 81.208C134.967 80.056 136.167 79.176 137.575 78.568C138.983 77.96 140.535 77.656 142.231 77.656C143.927 77.656 145.479 77.96 146.887 78.568C148.295 79.176 149.495 80.056 150.487 81.208C151.479 82.328 152.247 83.688 152.791 85.288C153.335 86.888 153.607 88.664 153.607 90.616C153.607 92.6 153.335 94.392 152.791 95.992C152.247 97.56 151.479 98.92 150.487 100.072C149.495 101.192 148.295 102.056 146.887 102.664C145.479 103.272 143.927 103.576 142.231 103.576Z" fill="#EDF0F1"/>
<path d="M12.4458 59.056H18.5258V20.464H7.26176V28.08H2.65376V17.328H39.9018V28.08H35.2938V20.464H24.0298V59.056H30.1098V62H12.4458V59.056ZM35.4663 59.056H40.2023V33.136L35.4663 32.304V30.128L45.3223 28.208V33.968H45.6423C45.9409 33.2853 46.3036 32.6027 46.7303 31.92C47.1996 31.2373 47.7543 30.6187 48.3943 30.064C49.0769 29.5093 49.8449 29.0613 50.6983 28.72C51.5943 28.3787 52.6183 28.208 53.7703 28.208C55.6476 28.208 57.1409 28.656 58.2503 29.552C59.4023 30.448 59.9783 31.7493 59.9783 33.456C59.9783 34.736 59.6583 35.7387 59.0183 36.464C58.3783 37.1893 57.5463 37.552 56.5223 37.552C55.3703 37.552 54.4529 37.2533 53.7703 36.656C53.0876 36.016 52.7463 35.2053 52.7463 34.224C52.7463 33.3707 52.9169 32.688 53.2583 32.176C53.6423 31.6213 54.0689 31.3013 54.5383 31.216V31.088C54.3676 31.0453 54.1543 31.024 53.8983 31.024C53.6423 30.9813 53.3223 30.96 52.9383 30.96C52.0423 30.96 51.1463 31.1947 50.2503 31.664C49.3543 32.0907 48.5436 32.6667 47.8183 33.392C47.1356 34.0747 46.5596 34.864 46.0903 35.76C45.6636 36.656 45.4503 37.552 45.4503 38.448V59.056H51.4663V62H35.4663V59.056ZM69.7293 59.632C71.3079 59.632 72.6733 59.376 73.8253 58.864C75.0199 58.3093 75.9799 57.5627 76.7053 56.624C77.4733 55.6427 78.0279 54.512 78.3693 53.232C78.7533 51.9093 78.9453 50.48 78.9453 48.944V42.032C78.9453 40.496 78.7533 39.088 78.3693 37.808C78.0279 36.4853 77.4733 35.3547 76.7053 34.416C75.9799 33.4347 75.0199 32.688 73.8253 32.176C72.6733 31.6213 71.3079 31.344 69.7293 31.344C68.1079 31.344 66.7213 31.6213 65.5693 32.176C64.4173 32.688 63.4573 33.4347 62.6893 34.416C61.9639 35.3547 61.4093 36.4853 61.0253 37.808C60.6839 39.088 60.5133 40.496 60.5133 42.032V48.944C60.5133 50.48 60.6839 51.9093 61.0253 53.232C61.4093 54.512 61.9639 55.6427 62.6893 56.624C63.4573 57.5627 64.4173 58.3093 65.5693 58.864C66.7213 59.376 68.1079 59.632 69.7293 59.632ZM69.7293 62.768C67.4679 62.768 65.3986 62.3627 63.5213 61.552C61.6439 60.7413 60.0439 59.5893 58.7213 58.096C57.3986 56.56 56.3746 54.7467 55.6493 52.656C54.9239 50.5227 54.5613 48.1333 54.5613 45.488C54.5613 42.8853 54.9239 40.5173 55.6493 38.384C56.3746 36.2507 57.3986 34.4373 58.7213 32.944C60.0439 31.408 61.6439 30.2347 63.5213 29.424C65.3986 28.6133 67.4679 28.208 69.7293 28.208C71.9906 28.208 74.0599 28.6133 75.9373 29.424C77.8146 30.2347 79.4146 31.408 80.7373 32.944C82.0599 34.4373 83.0839 36.2507 83.8093 38.384C84.5346 40.5173 84.8973 42.8853 84.8973 45.488C84.8973 48.1333 84.5346 50.5227 83.8093 52.656C83.0839 54.7467 82.0599 56.56 80.7373 58.096C79.4146 59.5893 77.8146 60.7413 75.9373 61.552C74.0599 62.3627 71.9906 62.768 69.7293 62.768ZM97.3913 62.768C95.0019 62.768 92.8686 62.3627 90.9913 61.552C89.1566 60.6987 87.5993 59.5253 86.3193 58.032C85.0393 56.496 84.0579 54.6827 83.3753 52.592C82.6926 50.4587 82.3513 48.0907 82.3513 45.488C82.3513 42.8427 82.7139 40.4533 83.4393 38.32C84.2073 36.1867 85.2739 34.3733 86.6393 32.88C88.0046 31.3867 89.6259 30.2347 91.5033 29.424C93.4233 28.6133 95.5353 28.208 97.8393 28.208C101.295 28.208 104.026 28.9547 106.031 30.448C108.079 31.8987 109.103 33.7547 109.103 36.016C109.103 37.3813 108.741 38.448 108.015 39.216C107.333 39.984 106.373 40.368 105.135 40.368C103.813 40.368 102.831 39.984 102.191 39.216C101.551 38.448 101.231 37.5307 101.231 36.464C101.231 35.5253 101.466 34.7147 101.935 34.032C102.405 33.3493 103.066 32.816 103.919 32.432V32.24C103.365 31.8987 102.639 31.6427 101.743 31.472C100.89 31.3013 99.7806 31.216 98.4153 31.216C96.9219 31.216 95.5353 31.4933 94.2553 32.048C93.0179 32.6027 91.9513 33.392 91.0553 34.416C90.1593 35.3973 89.4553 36.5707 88.9433 37.936C88.4313 39.2587 88.1753 40.7093 88.1753 42.288V47.024C88.1753 48.7733 88.4099 50.3733 88.8793 51.824C89.3486 53.232 90.0099 54.448 90.8633 55.472C91.7593 56.496 92.8046 57.2853 93.9993 57.84C95.2366 58.3947 96.6233 58.672 98.1593 58.672C100.762 58.672 102.81 58.1387 104.303 57.072C105.797 55.9627 106.991 54.5333 107.887 52.784L109.935 54.128C109.551 55.2373 108.997 56.3253 108.271 57.392C107.546 58.416 106.671 59.3333 105.647 60.144C104.623 60.912 103.407 61.5307 101.999 62C100.634 62.512 99.0979 62.768 97.3913 62.768ZM116.316 62.768C113.244 62.768 110.833 61.9787 109.084 60.4C107.377 58.7787 106.524 56.5813 106.524 53.808C106.524 52.2293 106.78 50.8427 107.292 49.648C107.804 48.4107 108.636 47.3867 109.788 46.576C110.982 45.7653 112.518 45.1467 114.396 44.72C116.273 44.2933 118.556 44.08 121.244 44.08H125.98V39.216C125.98 36.6133 125.34 34.6293 124.06 33.264C122.822 31.856 120.945 31.152 118.428 31.152C117.318 31.152 116.294 31.2587 115.356 31.472C114.417 31.6427 113.649 31.8987 113.052 32.24V32.368C113.521 32.624 113.969 33.008 114.396 33.52C114.865 34.032 115.1 34.7573 115.1 35.696C115.1 36.8053 114.78 37.68 114.14 38.32C113.5 38.9173 112.646 39.216 111.58 39.216C110.556 39.216 109.702 38.9173 109.02 38.32C108.38 37.68 108.06 36.7413 108.06 35.504C108.06 34.5653 108.337 33.6693 108.892 32.816C109.446 31.92 110.236 31.1307 111.26 30.448C112.284 29.7653 113.542 29.232 115.036 28.848C116.572 28.4213 118.3 28.208 120.22 28.208C123.676 28.208 126.364 29.104 128.284 30.896C130.246 32.688 131.228 35.2053 131.228 38.448V59.248H136.028V61.488C135.558 61.8293 134.918 62.128 134.108 62.384C133.34 62.64 132.465 62.768 131.484 62.768C129.82 62.768 128.54 62.2987 127.644 61.36C126.748 60.4213 126.3 59.1627 126.3 57.584V57.136H125.98C125.681 57.8613 125.276 58.5653 124.764 59.248C124.294 59.9307 123.676 60.528 122.908 61.04C122.14 61.552 121.201 61.9573 120.092 62.256C119.025 62.5973 117.766 62.768 116.316 62.768ZM118.556 59.248C120.604 59.248 122.353 58.736 123.804 57.712C125.254 56.6453 125.98 55.024 125.98 52.848V46.64H121.82C119.985 46.64 118.449 46.7893 117.212 47.088C115.974 47.344 114.993 47.7493 114.268 48.304C113.542 48.816 113.009 49.456 112.668 50.224C112.369 50.992 112.22 51.888 112.22 52.912V54.256C112.22 55.8773 112.774 57.1147 113.884 57.968C114.993 58.8213 116.55 59.248 118.556 59.248ZM146.005 62.768C141.909 62.768 138.624 61.296 136.149 58.352C133.717 55.3653 132.501 51.0773 132.501 45.488C132.501 39.8987 133.717 35.632 136.149 32.688C138.624 29.7013 141.909 28.208 146.005 28.208C148.565 28.208 150.635 28.7627 152.213 29.872C153.835 30.9813 155.008 32.3253 155.733 33.904H155.989V18.288L151.189 17.456V15.216L161.237 13.36V57.84L165.973 58.672V60.848L155.989 62.768V57.008H155.733C155.008 58.5867 153.856 59.952 152.277 61.104C150.699 62.2133 148.608 62.768 146.005 62.768ZM147.541 59.12C148.565 59.12 149.589 58.9707 150.613 58.672C151.637 58.3733 152.533 57.9467 153.301 57.392C154.112 56.8373 154.752 56.1547 155.221 55.344C155.733 54.4907 155.989 53.552 155.989 52.528V38.448C155.989 37.424 155.733 36.5067 155.221 35.696C154.752 34.8427 154.112 34.1387 153.301 33.584C152.533 33.0293 151.637 32.6027 150.613 32.304C149.589 32.0053 148.565 31.856 147.541 31.856C144.597 31.856 142.293 32.8587 140.629 34.864C139.008 36.8267 138.197 39.472 138.197 42.8V48.176C138.197 51.504 139.008 54.1707 140.629 56.176C142.293 58.1387 144.597 59.12 147.541 59.12Z" fill="#3F8CFF"/>
<path d="M172.271 62.768C169.199 62.768 166.788 61.9787 165.039 60.4C163.332 58.7787 162.479 56.5813 162.479 53.808C162.479 52.2293 162.735 50.8427 163.247 49.648C163.759 48.4107 164.591 47.3867 165.743 46.576C166.937 45.7653 168.473 45.1467 170.351 44.72C172.228 44.2933 174.511 44.08 177.199 44.08H181.935V39.216C181.935 36.6133 181.295 34.6293 180.015 33.264C178.777 31.856 176.9 31.152 174.383 31.152C173.273 31.152 172.249 31.2587 171.311 31.472C170.372 31.6427 169.604 31.8987 169.007 32.24V32.368C169.476 32.624 169.924 33.008 170.351 33.52C170.82 34.032 171.055 34.7573 171.055 35.696C171.055 36.8053 170.735 37.68 170.095 38.32C169.455 38.9173 168.601 39.216 167.535 39.216C166.511 39.216 165.657 38.9173 164.975 38.32C164.335 37.68 164.015 36.7413 164.015 35.504C164.015 34.5653 164.292 33.6693 164.847 32.816C165.401 31.92 166.191 31.1307 167.215 30.448C168.239 29.7653 169.497 29.232 170.991 28.848C172.527 28.4213 174.255 28.208 176.175 28.208C179.631 28.208 182.319 29.104 184.239 30.896C186.201 32.688 187.183 35.2053 187.183 38.448V59.248H191.983V61.488C191.513 61.8293 190.873 62.128 190.063 62.384C189.295 62.64 188.42 62.768 187.439 62.768C185.775 62.768 184.495 62.2987 183.599 61.36C182.703 60.4213 182.255 59.1627 182.255 57.584V57.136H181.935C181.636 57.8613 181.231 58.5653 180.719 59.248C180.249 59.9307 179.631 60.528 178.863 61.04C178.095 61.552 177.156 61.9573 176.047 62.256C174.98 62.5973 173.721 62.768 172.271 62.768ZM174.511 59.248C176.559 59.248 178.308 58.736 179.759 57.712C181.209 56.6453 181.935 55.024 181.935 52.848V46.64H177.775C175.94 46.64 174.404 46.7893 173.167 47.088C171.929 47.344 170.948 47.7493 170.223 48.304C169.497 48.816 168.964 49.456 168.623 50.224C168.324 50.992 168.175 51.888 168.175 52.912V54.256C168.175 55.8773 168.729 57.1147 169.839 57.968C170.948 58.8213 172.505 59.248 174.511 59.248ZM187.496 59.056H192.232V18.288L187.496 17.456V15.216L197.48 13.36V59.056H202.216V62H187.496V59.056ZM197.724 59.056H202.46V18.288L197.724 17.456V15.216L207.708 13.36V33.904H207.964C208.22 33.264 208.604 32.6027 209.116 31.92C209.628 31.2373 210.268 30.6187 211.036 30.064C211.846 29.5093 212.764 29.0613 213.788 28.72C214.854 28.3787 216.049 28.208 217.372 28.208C221.34 28.208 224.177 29.2533 225.884 31.344C227.59 33.392 228.444 36.4853 228.444 40.624V59.056H233.18V62H218.46V59.056H223.196V41.072C223.196 37.9573 222.577 35.6533 221.34 34.16C220.102 32.624 218.14 31.856 215.452 31.856C214.513 31.856 213.574 31.984 212.636 32.24C211.74 32.496 210.908 32.9013 210.14 33.456C209.414 34.0107 208.817 34.6933 208.348 35.504C207.921 36.3147 207.708 37.2747 207.708 38.384V59.056H212.444V62H197.724V59.056ZM244.509 59.632C246.088 59.632 247.453 59.376 248.605 58.864C249.8 58.3093 250.76 57.5627 251.485 56.624C252.253 55.6427 252.808 54.512 253.149 53.232C253.533 51.9093 253.725 50.48 253.725 48.944V42.032C253.725 40.496 253.533 39.088 253.149 37.808C252.808 36.4853 252.253 35.3547 251.485 34.416C250.76 33.4347 249.8 32.688 248.605 32.176C247.453 31.6213 246.088 31.344 244.509 31.344C242.888 31.344 241.501 31.6213 240.349 32.176C239.197 32.688 238.237 33.4347 237.469 34.416C236.744 35.3547 236.189 36.4853 235.805 37.808C235.464 39.088 235.293 40.496 235.293 42.032V48.944C235.293 50.48 235.464 51.9093 235.805 53.232C236.189 54.512 236.744 55.6427 237.469 56.624C238.237 57.5627 239.197 58.3093 240.349 58.864C241.501 59.376 242.888 59.632 244.509 59.632ZM244.509 62.768C242.248 62.768 240.179 62.3627 238.301 61.552C236.424 60.7413 234.824 59.5893 233.501 58.096C232.179 56.56 231.155 54.7467 230.429 52.656C229.704 50.5227 229.341 48.1333 229.341 45.488C229.341 42.8853 229.704 40.5173 230.429 38.384C231.155 36.2507 232.179 34.4373 233.501 32.944C234.824 31.408 236.424 30.2347 238.301 29.424C240.179 28.6133 242.248 28.208 244.509 28.208C246.771 28.208 248.84 28.6133 250.717 29.424C252.595 30.2347 254.195 31.408 255.517 32.944C256.84 34.4373 257.864 36.2507 258.589 38.384C259.315 40.5173 259.677 42.8853 259.677 45.488C259.677 48.1333 259.315 50.5227 258.589 52.656C257.864 54.7467 256.84 56.56 255.517 58.096C254.195 59.5893 252.595 60.7413 250.717 61.552C248.84 62.3627 246.771 62.768 244.509 62.768Z" fill="#AD2E2E"/>
</g>
<defs>
<clipPath id="clip0_6_6">
<rect width="263" height="177" fill="white"/>
</clipPath>
</defs>
</svg>
